<?xml version="1.0" encoding="utf-8"?>
<!-- Generator: Adobe Illustrator 23.0.3, SVG Export Plug-In . SVG Version: 6.00 Build 0)  -->
<svg version="1.1" id="Layer_1" xmlns="http://www.w3.org/2000/svg" xmlns:xlink="http://www.w3.org/1999/xlink" x="0px" y="0px"
	 viewBox="0 0 1000 1000" style="enable-background:new 0 0 1000 1000;" xml:space="preserve">
<style type="text/css">
	.st0{fill:#1F1F1F;}
	.st1{fill:#FFFFFF;}
</style>
<g>
	<g>
		<g>
			<path class="st1" d="M918,323.5c-34.5-81.4-92.1-150.7-164.5-199.7c-72.4-49-159.8-77.6-253.6-77.6C437.5,46.2,377.8,59,323.5,82
				c-81.4,34.5-150.7,92.1-199.7,164.5c-49,72.4-77.6,159.8-77.6,253.6c0,62.5,12.7,122.2,35.7,176.5
				c34.5,81.4,92.1,150.7,164.5,199.7c72.4,49,159.8,77.6,253.6,77.6c62.5,0,122.2-12.7,176.5-35.7
				c81.4-34.5,150.7-92.1,199.7-164.5c49-72.4,77.6-159.8,77.6-253.6C953.8,437.5,941,377.8,918,323.5z M862.3,652.9
				c-29.9,70.5-79.8,130.7-142.6,173.1c-62.8,42.5-138.3,67.2-219.7,67.2c-54.3,0-105.9-11-152.9-30.9
				c-70.5-29.9-130.7-79.8-173.1-142.6c-42.5-62.8-67.2-138.3-67.2-219.7c0-54.3,11-105.9,30.9-152.9
				c29.9-70.5,79.8-130.7,142.6-173.1c62.8-42.5,138.3-67.2,219.7-67.2c54.3,0,105.9,11,152.9,30.9
				c70.5,29.9,130.7,79.8,173.1,142.6c42.5,62.8,67.2,138.3,67.2,219.7C893.3,554.3,882.2,605.9,862.3,652.9z"/>
		</g>
	</g>
	<g>
		<path class="st1" d="M829.1,433.3c-13.1-30.8-34.8-56.9-62.2-75.4c-13.6-9.2-28.7-16.5-44.9-21.5c-16.1-5.1-33.2-7.8-51-7.8
			c-22.7,0-44.5,4.4-64.5,12.5c-1.7,0.7-3.2,1.3-4.8,2.1c-17.9,7.9-34.3,18.9-48.4,32.1c-4.5,4.3-8.9,8.9-13.2,14
			c-7.6,8.8-15.5,18.8-23.2,29c-1.5,2.1-3.2,4.3-4.8,6.4c-4.2,5.8-44.4,64.7-51.5,75.2c-3.5,5.3-7.8,11.3-12.3,17.8
			c-1,1.4-2.1,3-3.2,4.5c-7.5,10.7-16,22-23.7,32c-3.9,5-7.8,9.6-11.1,13.5c-3.4,4-6.5,7.2-8.8,9.3c-9.5,9-20.7,16.3-33,21.3
			c-12.3,5-25.7,7.8-39.9,7.8c-9.7,0-19.2-1.3-28-3.8c-4.5-1.2-9-2.8-13.3-4.7c-19.1-8-35.3-21.5-46.8-38.5
			c-5.8-8.5-10.3-17.8-13.4-27.8c-3-10-4.8-20.5-4.8-31.6c0-14.7,3-28.6,8.3-41.3c8.1-19.1,21.6-35.2,38.6-46.7
			c8.5-5.8,17.8-10.2,27.8-13.3c10-3.1,20.5-4.9,31.6-4.9c14.2,0.1,27.6,2.8,39.9,7.7c12.3,5.1,23.5,12.3,33,21.3
			c2.2,2.1,5.3,5.4,8.8,9.3c6,7,13.1,15.9,20.2,25.4c2.8,3.8,5.5,7.5,8.3,11.4c10.6-15.5,29.2-42.8,39-56.8c-1.7-2.2-3.3-4.4-5-6.6
			c-4.4-5.7-8.9-11.1-13.3-16.1c-4.4-5.1-8.6-9.6-13.2-14c-15.3-14.4-33.3-26.1-53.2-34.2c-19.9-8.1-41.8-12.5-64.5-12.5
			c-23.6,0-46.2,4.8-66.8,13.5c-30.8,13-56.8,34.7-75.3,62c-9.2,13.6-16.5,28.8-21.6,44.9c-5,16.2-7.6,33.2-7.6,51
			c0,23.6,4.8,46.2,13.4,66.7c13.1,30.9,34.8,57,62,75.5c13.7,9.2,28.8,16.5,45,21.6c16.1,5,33.2,7.6,51,7.6
			c22.7,0,44.5-4.4,64.5-12.5c19.8-8.1,37.8-19.8,53.1-34.1l0.1-0.1c4.5-4.2,8.8-8.9,13.2-14c7.6-8.8,15.5-18.8,23.2-29
			c1.5-2.1,3.2-4.2,4.8-6.3c4.2-5.9,59.3-86.6,63.8-93.2c1-1.4,2.1-3,3.2-4.5c7.5-10.6,16-22,23.7-32c3.9-5,7.8-9.6,11.1-13.5
			c3.4-4,6.5-7.2,8.8-9.3c9.5-9,20.7-16.2,33-21.3c3-1.2,6-2.2,9.1-3.2c9.7-2.9,20-4.4,30.8-4.5c14.7,0.1,28.7,3,41.3,8.4
			c19.1,8,35.3,21.5,46.7,38.4c5.8,8.5,10.3,17.8,13.4,27.8c3.1,10,4.8,20.5,4.8,31.6c0,14.7-3,28.7-8.3,41.3
			c-8.1,19.1-21.6,35.3-38.6,46.7c-8.5,5.8-17.8,10.3-27.8,13.3c-9.9,3.1-20.5,4.9-31.6,4.9c-14.2,0-27.6-2.8-39.9-7.8
			c-12.3-5-23.5-12.3-33-21.3c-2.2-2.1-5.3-5.4-8.8-9.3c-6-6.9-13.1-16-20.2-25.4c-2.9-3.8-5.6-7.6-8.4-11.5
			c-0.9,1.3-1.8,2.7-2.8,4.1c-18.3,26.8-29.8,43.8-36.1,52.9c1.7,2.2,3.3,4.3,5,6.5c4.4,5.6,8.9,11.1,13.3,16.1
			c4.3,5.1,8.6,9.8,13.2,14c15.3,14.4,33.3,26.1,53.2,34.2c19.9,8.1,41.8,12.5,64.5,12.5c23.6,0,46.2-4.8,66.7-13.4
			c30.9-13.1,56.9-34.8,75.5-62.2c9.2-13.6,16.6-28.7,21.6-44.9c5-16.1,7.7-33.2,7.7-51C842.5,476.4,837.7,453.8,829.1,433.3z"/>
	</g>
</g>
</svg>
