<?xml version="1.0" encoding="utf-8"?>
<!-- Generator: Adobe Illustrator 23.0.3, SVG Export Plug-In . SVG Version: 6.00 Build 0)  -->
<svg version="1.1" id="Layer_1" xmlns="http://www.w3.org/2000/svg" xmlns:xlink="http://www.w3.org/1999/xlink" x="0px" y="0px"
	 viewBox="0 0 2943.4 560" style="enable-background:new 0 0 2943.4 560;" xml:space="preserve">
<style type="text/css">
	.st0{fill:#1F1F1F;}
	.st1{fill:#FFFFFF;}
</style>
<g>
	<path class="st1" d="M122.4,437.3V122.7h105.2v314.6H122.4z"/>
	<path class="st1" d="M672.6,122.7v251.7c0,17.5-6.1,32.4-18.3,44.6c-12.2,12.2-27.1,18.3-44.6,18.3h-53.8L399.8,242.2v195.1H295.1
		V185.6c0-17.5,6.1-32.4,18.3-44.6c12.2-12.2,27.1-18.3,44.6-18.3h53.8l156.2,195.1V122.7H672.6z"/>
	<path class="st1" d="M857.4,206.8v41.8h231.1v84.1H857.4v104.7H752.7V185.6c0-17.5,6.1-32.4,18.3-44.6
		c12.2-12.2,27.1-18.3,44.6-18.3h314.6v84.1H857.4z"/>
	<path class="st1" d="M1197.7,437.3V122.7H1303v314.6H1197.7z"/>
	<path class="st1" d="M1748,122.7v251.7c0,17.5-6.1,32.4-18.3,44.6c-12.2,12.2-27.1,18.3-44.6,18.3h-53.8l-156.2-195.1v195.1h-104.7
		V185.6c0-17.5,6.1-32.4,18.3-44.6c12.2-12.2,27.1-18.3,44.6-18.3h53.8l156.2,195.1V122.7H1748z"/>
	<path class="st1" d="M1815.5,437.3V122.7h105.2v314.6H1815.5z"/>
	<path class="st1" d="M2369.7,122.7v84.1H2233v230.5h-104.7V206.8h-136.1v-84.1H2369.7z"/>
	<path class="st1" d="M2821,122.7v251.7c0,17.5-6.1,32.4-18.3,44.6c-12.2,12.2-27.1,18.3-44.6,18.3h-314.6v-21.2
		c0-17.2,6.1-31.9,18.3-44.3c12.2-12.4,27.1-18.6,44.6-18.6h188.8c5.7,0,10.7-2,14.9-6c4.2-4,6.3-8.9,6.3-14.6v-10.9h-209.9
		c-17.5,0-32.4-6.1-44.6-18.3c-12.2-12.2-18.3-27.1-18.3-44.6V122.7h104.7v115.5h147c5.7,0,10.7-2.1,14.9-6.3
		c4.2-4.2,6.3-9.2,6.3-14.9v-94.4H2821z"/>
</g>
</svg>
